# xmcd
#
# Track frame offsets:
#	150
#	17135
#	35419
#	61054
#	79078
#	96110
#	113405
#	130884
#	145691
#	161646
#	175416
#	192162
#	209692
#	225645
#	239482
#	256050
#	271901
#	288299
#	305388
#	322750
#
# Disc length: 4548 seconds
#
# Revision: 0
# Processed by: cddbd v1.5.2PL0 Copyright (c) Steve Scherf et al.
# Submitted via: EasyCDDAExtractor 8.0.0.2
#
DISCID=0b11c214
DTITLE=Various Artist - Bravo Hits 18  CD 1
DYEAR=1997
DGENRE=Pop
TTITLE0=Backstreet Boys - Everybody (Backstreet's Back)
TTITLE1=C-Block - Summertime
TTITLE2=Tic Tac Toe - Mr. Wichtig
TTITLE3=Ricky Martin - Maria
TTITLE4=Chilli feat. Carrapicho - Tic, Tic Tac
TTITLE5=Garcia - Bamboleo
TTITLE6=Mr. President - JoJo Action
TTITLE7=Lyte Funkie Ones - (Sex U Up) The Way You Like It
TTITLE8=2 Eivissa - Oh La La La
TTITLE9=Bellini  - Carneval
TTITLE10=Plastic Voice - Los Ninos Del Parque
TTITLE11=Dr. Motte And Westbam - Sunshine
TTITLE12=Da Hool  - Meet Her At The Love Parade
TTITLE13=U.S.U.R.A - Open Your Mind '97
TTITLE14=Brooklyn Bounce - Brooklyn Bounce - Take A Ride
TTITLE15=D.J. Sammy feat. Carisma - Prince Of Love
TTITLE16=Tempomat - Blu Balloni
TTITLE17=Anne Clark - Our Darkness '97
TTITLE18=Sequential One - Dreams
TTITLE19=Space Frog feat. The Grim Reaper - I Feel Ur Pain
EXTD=YEAR: 1997\n
EXTT0=
EXTT1=
EXTT2=
EXTT3=
EXTT4=
EXTT5=
EXTT6=
EXTT7=
EXTT8=
EXTT9=
EXTT10=
EXTT11=
EXTT12=
EXTT13=
EXTT14=
EXTT15=
EXTT16=
EXTT17=
EXTT18=
EXTT19=
PLAYORDER=
